<svg xmlns="http://www.w3.org/2000/svg" version="1.1" x="0" y="0" width="298.3" height="298.3" viewBox="0 0 298.3 298.3" xml:space="preserve" fill="#EE9F1B"><path d="M172.7 157L172.7 157c-8.7 0-15.7 7-15.7 15.7 0 8.7 7 15.7 15.7 15.7l0 0c8.7 0 15.7-7 15.7-15.7C188.4 164 181.4 157 172.7 157zM125.6 141.3c8.7 0 15.7-7 15.7-15.7 0-8.7-7-15.7-15.7-15.7 -8.7 0-15.7 7-15.7 15.7C109.9 134.3 116.9 141.3 125.6 141.3zM172.7 109.9L172.7 109.9c-8.7 0-15.7 7-15.7 15.7 0 8.7 7 15.7 15.7 15.7l0 0c8.7 0 15.7-7 15.7-15.7C188.4 116.9 181.4 109.9 172.7 109.9zM188.4 31.4h-78.5v31.4h78.5V31.4zM219.8 141.3c8.7 0 15.7-7 15.7-15.7 0-8.7-7-15.7-15.7-15.7 -8.7 0-15.7 7-15.7 15.7C204.1 134.3 211.1 141.3 219.8 141.3zM219.8 188.4c8.7 0 15.7-7 15.7-15.7 0-8.7-7-15.7-15.7-15.7 -8.7 0-15.7 7-15.7 15.7C204.1 181.4 211.1 188.4 219.8 188.4zM125.6 188.4c8.7 0 15.7-7 15.7-15.7 0-8.7-7-15.7-15.7-15.7 -8.7 0-15.7 7-15.7 15.7C109.9 181.4 116.9 188.4 125.6 188.4zM78.5 235.5c8.7 0 15.7-7 15.7-15.7 0-8.7-7-15.7-15.7-15.7 -8.7 0-15.7 7-15.7 15.7C62.8 228.5 69.8 235.5 78.5 235.5zM266.9 31.4h-15.7v31.4h15.7v204.1H31.4V62.8h15.7V31.4H31.4C14.1 31.4 0 45.5 0 62.8v204.1c0 17.4 14.1 31.4 31.4 31.4h235.5c17.3 0 31.4-14.1 31.4-31.4V62.8C298.3 45.5 284.3 31.4 266.9 31.4zM78.5 188.4c8.7 0 15.7-7 15.7-15.7 0-8.7-7-15.7-15.7-15.7 -8.7 0-15.7 7-15.7 15.7C62.8 181.4 69.8 188.4 78.5 188.4zM78.5 141.3c8.7 0 15.7-7 15.7-15.7 0-8.7-7-15.7-15.7-15.7 -8.7 0-15.7 7-15.7 15.7C62.8 134.3 69.8 141.3 78.5 141.3zM125.6 235.5c8.7 0 15.7-7 15.7-15.7 0-8.7-7-15.7-15.7-15.7 -8.7 0-15.7 7-15.7 15.7C109.9 228.5 116.9 235.5 125.6 235.5zM78.5 62.8c8.7 0 15.7-7 15.7-15.7v-31.4C94.2 7 87.2 0 78.5 0c-8.7 0-15.7 7-15.7 15.7v31.4C62.8 55.8 69.8 62.8 78.5 62.8zM219.8 62.8c8.7 0 15.7-7 15.7-15.7v-31.4C235.5 7 228.5 0 219.8 0c-8.7 0-15.7 7-15.7 15.7v31.4C204.1 55.8 211.1 62.8 219.8 62.8z"/></svg>