<svg xmlns="http://www.w3.org/2000/svg" version="1.1" x="0" y="0" width="314" height="314" viewBox="0 0 314 314" xml:space="preserve" fill="#EE9F1B"><path d="M157 149.4c13 0 23.6-10.5 23.6-23.6 0-13-10.5-23.5-23.6-23.5 -13 0-23.6 10.5-23.6 23.5C133.5 138.8 144 149.4 157 149.4zM282.6 15.9H31.4C14.1 15.9 0 30 0 47.3v157c0 17.3 14.1 31.4 31.4 31.4h47.1v47.1c0 17.4 8.7 20.4 19.5 6.8l42.8-53.9h141.8c17.3 0 31.4-14.1 31.4-31.4V47.3C314 30 300 15.9 282.6 15.9zM282.6 204.3H31.4V47.3h251.2V204.3zM219.8 149.4c13 0 23.6-10.5 23.6-23.6 0-13-10.6-23.5-23.6-23.5 -13 0-23.6 10.5-23.6 23.5C196.3 138.8 206.8 149.4 219.8 149.4zM94.2 149.4c13 0 23.6-10.5 23.6-23.6 0-13-10.6-23.5-23.6-23.5 -13 0-23.6 10.5-23.6 23.5C70.7 138.8 81.2 149.4 94.2 149.4z"/></svg>